<?xml version="1.0" standalone="no"?>
<!DOCTYPE svg PUBLIC "-//W3C//DTD SVG 20010904//EN"
 "http://www.w3.org/TR/2001/REC-SVG-20010904/DTD/svg10.dtd">
<svg version="1.0" xmlns="http://www.w3.org/2000/svg"
 width="515.000000pt" height="240.000000pt" viewBox="0 0 515.000000 240.000000"
 preserveAspectRatio="xMidYMid meet">
<metadata>
Created by potrace 1.16, written by Peter Selinger 2001-2019
</metadata>
<g transform="translate(0.000000,240.000000) scale(0.100000,-0.100000)"
fill="#000000" stroke="none">
<path d="M158 2023 c-1 -153 0 -503 3 -778 2 -275 4 -549 4 -610 1 -135 3
-156 15 -175 8 -13 11 -13 25 1 14 14 16 53 15 305 -3 702 0 1230 6 1256 3 16
1 35 -5 41 -6 7 -12 44 -13 83 l-3 69 70 -3 c39 -1 96 -7 128 -14 44 -8 61 -8
70 1 14 14 94 15 102 1 4 -6 14 -9 23 -6 37 11 385 0 612 -20 75 -6 159 -6
169 1 5 3 17 2 26 -1 15 -6 16 -41 11 -433 -3 -234 -10 -471 -15 -526 -5 -55
-6 -103 -4 -108 2 -4 -1 -24 -8 -44 -21 -64 -27 -153 -29 -405 -2 -177 -4
-198 -18 -199 -69 -7 -297 -5 -442 2 -96 5 -248 11 -336 12 -142 3 -165 2
-185 -14 l-24 -17 25 -6 c34 -7 204 -16 385 -21 83 -3 211 -6 285 -8 74 -3
183 -8 241 -12 l106 -8 7 189 c3 104 11 239 16 299 5 61 15 184 21 275 11 154
20 197 39 185 4 -3 11 -21 14 -40 5 -25 13 -36 29 -40 12 -2 56 -11 97 -19 91
-18 211 -49 225 -57 12 -8 146 -42 227 -59 32 -6 60 -16 63 -21 4 -5 15 -9 27
-9 11 0 34 -6 51 -13 18 -8 59 -21 92 -29 33 -9 85 -25 115 -36 30 -11 89 -30
130 -42 41 -12 85 -26 98 -31 13 -5 32 -9 43 -9 10 0 28 -4 39 -10 11 -5 29
-14 40 -20 11 -6 28 -10 38 -10 10 0 44 -13 74 -29 34 -17 81 -31 120 -35 34
-4 95 -20 135 -36 39 -17 80 -30 90 -30 10 0 42 -11 72 -25 29 -14 59 -24 65
-23 14 3 174 -59 200 -78 11 -8 31 -14 45 -14 34 0 157 -62 213 -107 113 -91
204 -160 247 -185 49 -29 91 -36 91 -15 0 12 -53 47 -71 47 -17 0 -102 71
-158 132 -69 74 -80 92 -55 85 11 -3 63 -13 117 -22 54 -9 113 -25 130 -36 18
-11 45 -25 60 -32 28 -12 28 -13 22 -67 -4 -30 -13 -70 -21 -89 -17 -40 -10
-73 27 -129 16 -24 36 -56 44 -72 10 -20 29 -33 65 -45 43 -14 60 -15 127 -4
63 10 86 19 120 46 23 19 44 42 48 51 32 76 20 121 -27 103 -26 -10 -44 -43
-33 -61 14 -23 -110 -100 -161 -100 -13 0 -46 24 -81 58 -52 49 -61 63 -67
105 -5 33 -4 53 5 63 7 9 12 35 10 60 -2 39 3 51 45 104 58 74 138 118 185
101 50 -17 73 -39 85 -83 44 -154 71 -181 72 -71 1 56 -4 75 -24 105 -13 21
-24 42 -24 47 0 5 -14 20 -30 33 -17 13 -46 35 -64 50 -45 37 -136 46 -248 25
-46 -9 -135 -21 -198 -28 -125 -13 -146 -19 -155 -48 -5 -17 -14 -19 -68 -17
-34 2 -98 13 -142 25 -44 13 -111 31 -150 41 -38 10 -122 35 -185 55 -63 20
-125 39 -137 42 -13 3 -23 9 -23 13 0 4 -19 10 -42 13 -57 8 -67 11 -108 30
-19 9 -81 30 -137 47 -56 17 -105 35 -108 40 -3 6 -17 10 -29 10 -21 0 -112
31 -191 64 -16 7 -73 23 -125 36 -52 13 -111 29 -130 38 -19 8 -48 20 -65 27
-39 17 -96 32 -170 46 -33 6 -64 15 -70 19 -5 4 -53 17 -105 29 -112 26 -172
48 -283 103 -26 12 -46 27 -44 33 2 5 50 13 108 17 113 7 350 35 414 48 22 5
99 16 170 25 72 9 155 21 185 26 30 6 84 14 120 19 36 5 90 16 120 26 30 9 82
20 115 24 33 4 74 12 92 18 17 6 34 8 37 5 2 -3 34 2 70 11 35 9 91 17 123 18
32 1 67 7 78 13 11 7 46 15 78 19 61 7 84 12 242 52 122 32 290 46 408 34 49
-5 94 -7 100 -5 12 3 186 16 297 21 128 5 211 21 236 45 62 58 118 223 93 271
-6 11 -8 35 -5 54 8 41 -8 74 -65 133 -53 54 -83 67 -187 75 -106 9 -139 -2
-196 -65 -24 -27 -49 -49 -54 -49 -6 0 -28 -16 -48 -36 -21 -19 -79 -60 -130
-89 -50 -30 -109 -74 -130 -98 -22 -24 -48 -47 -59 -51 -11 -3 -35 -20 -54
-36 -18 -17 -36 -30 -40 -30 -3 0 -14 -14 -23 -31 -10 -16 -31 -35 -48 -40
-16 -6 -30 -16 -30 -22 0 -12 -191 -77 -225 -77 -9 0 -24 -4 -33 -9 -10 -5
-67 -18 -127 -30 -280 -52 -510 -93 -600 -106 -124 -19 -180 -28 -235 -40 -36
-7 -117 -18 -180 -25 -114 -12 -370 -44 -485 -61 -33 -5 -93 -8 -133 -7 -43 0
-78 -4 -85 -11 -6 -6 -14 -11 -18 -11 -8 0 -13 277 -10 622 1 187 -1 248 -11
254 -7 4 -107 9 -223 10 -115 2 -230 5 -255 8 -25 2 -131 7 -237 10 -106 4
-277 13 -380 21 -103 8 -194 15 -200 15 -10 0 -13 -63 -15 -277z m4323 206
c74 -25 139 -115 139 -193 0 -14 5 -35 12 -45 9 -15 9 -25 0 -46 -7 -14 -12
-41 -12 -59 0 -66 -120 -134 -209 -120 -40 6 -46 12 -124 104 -57 69 -74 130
-56 210 16 74 29 99 72 130 33 24 51 30 92 30 29 0 67 -5 86 -11z m-311 -189
c0 -21 5 -50 11 -64 6 -13 9 -36 5 -50 -5 -21 -13 -26 -36 -26 -16 0 -49 -7
-74 -15 -77 -26 -244 -57 -259 -48 -19 12 126 122 263 199 41 24 78 43 83 43
4 1 7 -17 7 -39z m81 -192 c6 -13 25 -38 42 -56 20 -20 27 -36 21 -41 -13 -13
-337 -23 -457 -13 -148 11 -135 23 73 68 63 14 134 29 158 34 24 5 51 14 60
19 9 6 34 11 54 11 29 0 40 -5 49 -22z m119 -1193 c0 -1 -32 -28 -71 -60 -62
-49 -75 -55 -93 -46 -30 15 -163 49 -218 56 -46 6 -67 19 -53 33 12 12 110 19
273 19 89 0 162 -1 162 -2z"/>
</g>
</svg>
