<?xml version="1.0" standalone="no"?>
<!DOCTYPE svg PUBLIC "-//W3C//DTD SVG 20010904//EN"
 "http://www.w3.org/TR/2001/REC-SVG-20010904/DTD/svg10.dtd">
<svg version="1.0" xmlns="http://www.w3.org/2000/svg"
 width="675.000000pt" height="296.000000pt" viewBox="0 0 675.000000 296.000000"
 preserveAspectRatio="xMidYMid meet">
<metadata>
Created by potrace 1.16, written by Peter Selinger 2001-2019
</metadata>
<g transform="translate(0.000000,296.000000) scale(0.100000,-0.100000)"
fill="#000000" stroke="none">
<path d="M5000 2830 c0 -5 -6 -10 -13 -10 -7 0 -35 -14 -61 -30 -42 -27 -52
-29 -84 -21 -21 5 -193 7 -397 5 -198 -2 -371 -4 -385 -3 -14 1 -79 1 -145 0
-66 -1 -246 0 -400 1 -437 3 -815 2 -1030 -3 -431 -9 -2017 3 -2101 17 -38 6
-43 4 -49 -16 -9 -28 21 -71 56 -80 13 -4 132 -5 264 -3 132 3 467 3 745 1
807 -5 1264 -1 1268 11 4 13 32 15 32 2 0 -6 170 -10 438 -10 240 -1 720 -2
1066 -4 l628 -3 20 -27 c11 -15 39 -39 63 -53 38 -22 51 -24 92 -18 64 9 112
27 164 59 45 29 43 29 212 9 26 -3 123 -7 215 -8 292 -6 566 -18 584 -27 24
-13 57 19 67 62 15 66 7 70 -147 69 -118 -1 -319 5 -831 27 -106 4 -117 6
-157 34 -42 29 -114 41 -114 19z"/>
<path d="M4814 2533 c-10 -10 -13 -24 -9 -37 4 -12 7 -30 6 -41 0 -11 -1 -53
0 -93 0 -47 -6 -92 -18 -124 -18 -50 -18 -50 4 -68 18 -14 39 -17 134 -14 78
3 119 8 135 19 21 13 23 13 29 -5 8 -25 42 -35 61 -19 22 18 44 64 44 91 0 47
-72 77 -100 43 -10 -12 -16 -13 -27 -4 -7 7 -15 10 -16 8 -2 -2 -14 -19 -26
-36 -40 -59 -111 -34 -111 40 0 37 20 43 65 18 20 -11 43 -17 51 -14 18 7 28
46 20 78 -5 21 -2 27 20 35 25 10 26 13 21 62 -4 28 -10 55 -14 59 -5 3 -63 9
-131 12 -102 4 -125 3 -138 -10z"/>
<path d="M4974 1410 c-11 -4 -26 -23 -33 -42 -7 -18 -19 -44 -27 -58 -14 -24
-21 -39 -58 -120 -9 -19 -30 -54 -47 -76 -26 -35 -29 -45 -20 -63 12 -22 40
-27 111 -22 49 3 65 34 35 65 -17 16 -20 42 -6 50 4 3 28 2 52 -2 39 -7 44
-10 41 -32 -2 -14 -8 -30 -14 -37 -17 -21 -3 -36 48 -49 51 -13 124 -4 124 17
0 5 11 2 25 -7 35 -23 72 -11 92 30 22 46 11 78 -33 102 l-36 19 -19 -24 c-10
-13 -19 -31 -19 -42 0 -10 -4 -20 -9 -24 -13 -7 -41 34 -41 60 0 11 -14 51
-30 90 -17 38 -30 80 -30 93 0 13 -9 37 -21 53 -21 30 -45 35 -85 19z"/>
<path d="M103 1133 c-61 -6 -69 -21 -49 -88 13 -40 17 -83 15 -168 -1 -62 1
-119 6 -126 17 -28 203 12 254 55 28 24 31 31 31 87 0 58 -2 63 -30 82 -31 20
-38 39 -20 50 17 11 11 61 -11 89 -19 24 -26 26 -87 24 -37 -1 -86 -3 -109 -5z"/>
<path d="M3468 985 c-2 -2 -217 -6 -478 -10 -261 -3 -479 -9 -484 -13 -6 -3
-461 -6 -1011 -7 -877 0 -1000 -2 -1000 -15 0 -9 14 -17 40 -22 78 -13 2110
-7 2380 7 76 4 1648 5 1829 1 68 -1 84 15 34 35 -25 10 -148 14 -528 16 -272
1 -559 4 -637 6 -78 3 -143 4 -145 2z"/>
<path d="M5310 949 c-19 -5 -109 -10 -200 -12 -145 -3 -165 -6 -168 -20 -2 -9
2 -17 10 -18 7 0 113 0 236 1 123 0 249 -4 280 -9 31 -6 251 -16 487 -23 582
-17 540 -17 540 7 0 19 -11 21 -175 32 -96 6 -245 11 -331 12 -132 1 -488 21
-609 35 -19 2 -51 0 -70 -5z"/>
<path d="M4882 705 c-56 -13 -87 -36 -132 -97 -25 -34 -27 -45 -24 -100 7
-122 83 -178 239 -178 83 0 121 13 129 43 4 18 7 18 31 -12 34 -39 58 -39 85
-1 25 35 22 63 -10 98 -25 26 -43 28 -65 6 -12 -13 -19 -14 -28 -5 -19 19 -39
13 -74 -24 -28 -29 -41 -35 -77 -35 -39 0 -46 4 -70 38 -14 21 -26 49 -26 63
0 14 -5 30 -11 36 -16 16 -2 49 34 83 27 26 39 30 77 28 41 -3 46 -6 63 -40
14 -31 22 -38 47 -38 26 0 31 5 40 40 14 50 4 89 -24 94 -57 12 -157 12 -204
1z"/>
<path d="M180 390 c-41 -3 -83 -10 -92 -14 -21 -10 -23 -34 -4 -59 14 -17 14
-150 1 -229 -5 -32 16 -58 47 -58 12 0 29 -6 37 -14 12 -10 35 -11 99 -5 67 6
91 13 123 35 92 63 122 188 66 270 -44 65 -124 87 -277 74z m146 -77 c27 -17
34 -41 34 -119 0 -66 -7 -77 -67 -108 -20 -10 -43 -14 -58 -10 -22 5 -25 12
-25 49 0 24 5 47 10 50 7 4 4 19 -10 42 -24 41 -19 75 17 103 27 21 59 19 99
-7z"/>
<path d="M1937 264 c-5 -3 -484 -16 -880 -23 -240 -5 -440 -11 -443 -14 -4 -3
-4 -14 0 -23 6 -15 39 -15 384 -10 207 4 541 11 742 17 400 12 1929 14 2735 4
281 -3 560 -5 620 -5 61 1 130 -3 155 -9 25 -5 88 -12 140 -15 140 -9 635 -35
872 -46 114 -5 211 -10 215 -11 20 -3 33 2 33 14 -1 34 -17 39 -146 44 -71 2
-172 9 -224 14 -52 6 -167 12 -255 14 -88 2 -230 8 -315 15 -85 7 -263 14
-395 15 -132 2 -285 7 -340 10 -79 5 -2892 14 -2898 9z"/>
</g>
</svg>
