<?xml version="1.0" standalone="no"?>
<!DOCTYPE svg PUBLIC "-//W3C//DTD SVG 20010904//EN"
 "http://www.w3.org/TR/2001/REC-SVG-20010904/DTD/svg10.dtd">
<svg version="1.0" xmlns="http://www.w3.org/2000/svg"
 width="579.000000pt" height="419.000000pt" viewBox="0 0 579.000000 419.000000"
 preserveAspectRatio="xMidYMid meet">
<metadata>
Created by potrace 1.16, written by Peter Selinger 2001-2019
</metadata>
<g transform="translate(0.000000,419.000000) scale(0.100000,-0.100000)"
fill="#000000" stroke="none">
<path d="M1795 4090 c-67 -5 -155 -15 -197 -24 -43 -9 -86 -16 -98 -16 -11 0
-46 -9 -78 -19 -32 -11 -95 -29 -140 -41 -52 -14 -135 -48 -220 -93 -129 -66
-166 -90 -254 -162 -20 -16 -66 -55 -103 -85 -85 -70 -102 -87 -145 -146 -19
-26 -43 -57 -53 -68 -9 -12 -35 -41 -56 -66 -21 -25 -49 -65 -62 -90 -12 -25
-35 -64 -51 -87 -15 -23 -28 -45 -28 -49 0 -4 -20 -48 -44 -98 -24 -50 -54
-125 -66 -166 -12 -41 -26 -86 -31 -99 -9 -22 -33 -117 -46 -184 -5 -24 -3
-28 13 -25 10 2 21 16 26 33 10 43 92 271 117 329 12 26 30 60 40 75 10 14 21
38 24 52 4 14 18 41 31 60 14 19 32 49 40 67 8 18 40 62 71 98 30 36 55 68 55
72 0 4 19 27 41 52 23 25 58 65 78 90 20 25 39 47 43 50 16 12 105 88 147 126
25 22 62 51 81 64 19 14 41 30 48 37 7 7 19 13 26 13 6 0 17 5 24 12 6 6 26
17 44 24 63 23 147 60 160 71 49 37 335 112 378 98 9 -3 30 0 46 7 16 6 85 15
154 19 69 5 132 9 140 10 17 1 128 -15 205 -31 28 -6 79 -15 115 -20 159 -23
254 -49 340 -94 58 -31 213 -108 260 -130 34 -16 37 -42 7 -50 -13 -3 -45 -22
-72 -42 -26 -21 -67 -47 -91 -58 -24 -12 -87 -61 -140 -111 -125 -116 -138
-130 -178 -190 -19 -27 -56 -71 -84 -96 -28 -26 -63 -71 -77 -100 -15 -30 -39
-69 -53 -88 -24 -33 -92 -182 -92 -204 0 -6 -9 -29 -19 -51 -39 -81 -60 -148
-92 -291 -11 -49 -25 -112 -32 -140 -15 -64 -14 -546 1 -630 6 -33 18 -91 27
-130 8 -38 15 -80 15 -92 0 -55 177 -401 276 -540 106 -150 147 -207 155 -213
3 -3 13 -16 22 -30 9 -13 60 -68 113 -121 78 -79 95 -101 89 -118 -7 -24 -1
-27 60 -35 22 -3 41 -5 43 -6 10 -1 -1 -30 -13 -30 -8 0 -22 -8 -32 -18 -20
-21 -166 -58 -260 -66 -35 -3 -98 -15 -140 -27 -88 -23 -405 -44 -451 -29 -15
5 -58 11 -97 14 -74 5 -101 10 -255 49 -243 62 -431 151 -613 289 -42 32 -78
66 -82 77 -3 10 -14 26 -24 35 -21 19 -44 12 -80 -22 -10 -9 -26 -22 -36 -28
-28 -16 -12 -41 33 -53 49 -14 175 -84 239 -134 45 -34 268 -143 319 -156 41
-10 85 -24 144 -48 19 -7 100 -27 180 -44 129 -27 164 -31 320 -31 268 0 562
46 730 116 36 15 79 32 95 38 17 6 32 15 35 19 10 14 78 13 95 -1 16 -13 126
-55 225 -85 25 -8 59 -19 76 -26 17 -7 39 -9 50 -5 20 8 22 7 -111 66 -22 10
-51 22 -65 28 -81 31 -99 42 -94 57 4 8 -1 17 -10 21 -9 3 -16 12 -16 19 0 6
-9 16 -20 21 -20 9 -16 16 56 124 42 63 92 132 111 153 18 20 33 41 33 46 0 5
25 39 55 76 30 36 55 71 55 76 0 5 8 18 18 28 9 10 27 34 40 52 24 36 118 162
164 220 24 31 112 182 190 329 17 30 43 73 59 94 16 22 29 44 29 49 0 5 8 21
19 35 27 40 36 72 18 72 -26 0 -127 -112 -127 -141 0 -15 -8 -37 -19 -50 -10
-13 -42 -67 -71 -119 -29 -52 -63 -106 -75 -120 -13 -14 -26 -36 -30 -50 -4
-14 -30 -59 -57 -100 -66 -103 -80 -121 -104 -145 -12 -11 -34 -40 -49 -65
-15 -25 -40 -59 -54 -76 -14 -17 -44 -52 -66 -78 -22 -26 -51 -66 -65 -89 -37
-62 -125 -187 -159 -226 -29 -33 -31 -34 -49 -18 -10 10 -30 41 -44 70 -72
149 -122 256 -135 289 -8 21 -30 66 -48 100 -87 166 -274 548 -290 592 -10 27
-33 76 -51 109 -19 32 -34 62 -34 66 0 3 -11 26 -24 51 -13 25 -27 56 -31 70
-3 14 -25 64 -47 113 -40 85 -42 87 -76 87 -29 0 -33 3 -27 18 4 9 11 62 16
117 17 220 24 251 107 480 48 135 119 269 197 375 14 19 55 73 91 120 36 47
72 96 79 110 8 14 45 53 82 88 37 34 79 73 93 86 14 12 42 41 62 64 21 23 60
53 86 66 27 13 54 32 62 41 7 9 26 23 42 31 27 14 33 13 93 -16 36 -17 65 -35
65 -41 0 -5 5 -9 11 -9 12 0 149 -116 163 -139 5 -7 35 -38 67 -69 33 -30 59
-59 59 -65 0 -5 14 -26 31 -46 163 -190 279 -404 325 -596 8 -33 23 -81 34
-107 11 -26 20 -65 20 -87 0 -22 4 -50 9 -63 5 -13 14 -84 21 -158 7 -74 18
-147 26 -162 16 -31 40 -28 46 6 10 49 -24 344 -50 441 -6 22 -19 74 -28 115
-9 41 -21 80 -26 87 -6 7 -14 27 -18 45 -26 98 -80 214 -109 232 -5 3 -21 29
-36 58 -15 29 -47 76 -71 104 -24 28 -44 56 -44 63 0 6 -4 11 -9 11 -5 0 -29
28 -54 63 -40 56 -76 96 -208 234 -134 139 -218 203 -292 220 -33 8 -92 31
-131 52 -144 77 -233 121 -246 121 -8 0 -53 13 -100 29 -47 15 -107 33 -135
39 -27 5 -81 17 -120 26 -87 21 -262 27 -420 16z m237 -2172 c8 -13 22 -43 32
-68 10 -25 28 -61 40 -80 41 -63 80 -134 101 -185 12 -28 36 -72 54 -98 18
-26 44 -71 57 -100 14 -29 29 -59 34 -67 4 -8 29 -58 55 -110 26 -52 54 -102
61 -111 8 -8 14 -19 14 -23 0 -5 20 -40 44 -80 25 -39 49 -82 54 -96 5 -14 33
-73 61 -132 28 -60 51 -114 51 -122 0 -7 7 -19 15 -26 8 -7 15 -17 15 -22 0
-6 10 -24 23 -41 71 -100 59 -130 -22 -53 -25 24 -88 84 -140 132 -81 77 -181
193 -181 210 0 3 -24 40 -54 83 -30 42 -76 120 -103 172 -27 52 -55 103 -61
114 -38 68 -106 215 -112 245 -5 19 -20 80 -35 135 -29 108 -48 293 -38 365 7
45 7 45 14 13 3 -18 13 -43 21 -55z"/>
<path d="M3750 3990 c-36 -3 -74 -11 -85 -17 -11 -6 -40 -13 -65 -17 -83 -12
-223 -48 -413 -107 -62 -20 -86 -34 -75 -45 7 -6 273 54 323 73 22 8 58 19 80
23 22 5 63 14 90 21 81 19 444 16 530 -5 39 -10 88 -21 110 -26 22 -5 53 -13
68 -19 16 -6 43 -11 60 -11 43 0 118 -24 197 -61 36 -17 79 -37 95 -43 74 -30
252 -124 294 -156 65 -48 113 -104 151 -175 72 -134 80 -145 108 -145 40 0
152 52 152 70 0 8 -16 26 -35 39 -19 13 -35 28 -35 33 0 5 -35 44 -78 86 -76
75 -103 93 -248 166 -39 20 -94 51 -122 71 -28 19 -57 35 -63 35 -6 0 -50 18
-98 41 -208 97 -436 155 -651 164 -74 3 -155 7 -180 9 -25 2 -74 0 -110 -4z"/>
<path d="M3045 2552 c-57 -36 -69 -58 -73 -132 -4 -61 -7 -69 -27 -74 -20 -5
-22 -13 -28 -97 -7 -116 -1 -131 56 -127 l42 3 3 54 c2 30 -2 67 -9 83 -14 34
-8 44 18 27 26 -16 106 -4 126 19 8 9 17 29 21 43 8 36 -13 52 -58 43 -33 -6
-36 -4 -36 17 0 34 12 49 46 58 35 9 62 56 47 80 -15 24 -91 26 -128 3z"/>
<path d="M2273 2092 c-83 -2 -103 -6 -103 -17 0 -8 8 -15 18 -15 9 0 55 -5
102 -11 47 -6 141 -13 210 -15 285 -9 595 -15 927 -17 193 -1 354 -5 358 -8
15 -16 14 -216 -1 -289 -16 -74 -61 -228 -91 -305 -24 -64 -116 -247 -138
-275 -11 -14 -28 -42 -39 -62 -10 -20 -29 -47 -42 -59 -13 -12 -24 -28 -24
-36 0 -11 -39 -59 -120 -148 -105 -115 -212 -210 -300 -266 -25 -16 -54 -35
-65 -41 -40 -26 -57 -58 -30 -58 48 0 264 140 315 205 19 24 42 46 50 49 20 8
160 141 160 153 0 5 8 16 18 25 42 39 97 127 172 278 28 58 57 112 64 120 14
17 83 227 92 283 3 20 10 40 15 43 5 3 9 16 9 30 0 14 6 37 14 52 12 25 30
189 27 259 -1 23 5 35 19 43 29 15 25 35 -12 58 -22 14 -37 18 -52 12 -21 -9
-622 -30 -816 -29 -102 1 -227 9 -460 30 -162 14 -163 14 -277 11z"/>
<path d="M3024 1633 c-41 -8 -48 -43 -29 -130 10 -43 17 -102 17 -130 0 -66
19 -92 73 -99 33 -5 47 -1 79 23 79 58 96 81 96 134 0 64 -44 119 -95 119 -19
0 -37 -4 -40 -10 -12 -19 -37 -11 -31 10 3 11 8 29 11 39 3 10 -2 26 -10 35
-16 16 -29 17 -71 9z"/>
<path d="M2618 1609 c-52 -27 -63 -50 -49 -104 6 -24 11 -59 11 -78 0 -49 27
-68 98 -73 54 -3 60 -1 79 24 29 40 33 58 18 79 -9 11 -14 43 -15 79 0 46 -4
65 -18 77 -25 22 -78 21 -124 -4z"/>
<path d="M5582 1303 c-40 -5 -58 -31 -98 -142 -30 -82 -119 -237 -164 -286
-15 -16 -31 -37 -36 -46 -14 -25 -96 -120 -124 -143 -14 -12 -54 -50 -91 -86
-115 -115 -214 -199 -275 -236 -218 -132 -396 -203 -584 -235 -72 -12 -362
-14 -411 -4 -24 6 -30 4 -27 -6 10 -29 423 -41 512 -15 28 8 82 22 119 31 149
35 341 115 432 180 34 25 66 45 70 45 7 0 50 33 192 148 36 28 69 52 74 52 5
0 20 17 33 38 23 34 65 80 131 142 30 28 85 98 156 197 26 35 56 71 67 78 11
8 22 25 26 39 6 24 52 98 107 173 38 51 33 73 -15 73 -19 0 -40 2 -48 3 -7 2
-28 2 -46 0z"/>
</g>
</svg>
